<?xml version="1.0" encoding="UTF-8" standalone="no"?>
<!-- Created with Inkscape (http://www.inkscape.org/) -->

<svg
   width="13.55707mm"
   height="12.94095mm"
   viewBox="0 0 13.55707 12.94095"
   version="1.1"
   id="svg108943"
   inkscape:version="1.1.1 (3bf5ae0d25, 2021-09-20)"
   sodipodi:docname="found.svg"
   xmlns:inkscape="http://www.inkscape.org/namespaces/inkscape"
   xmlns:sodipodi="http://sodipodi.sourceforge.net/DTD/sodipodi-0.dtd"
   xmlns="http://www.w3.org/2000/svg"
   xmlns:svg="http://www.w3.org/2000/svg">
  <sodipodi:namedview
     id="namedview108945"
     pagecolor="#ffffff"
     bordercolor="#666666"
     borderopacity="1.0"
     inkscape:pageshadow="2"
     inkscape:pageopacity="0.0"
     inkscape:pagecheckerboard="0"
     inkscape:document-units="mm"
     showgrid="false"
     fit-margin-top="0"
     fit-margin-left="0"
     fit-margin-right="0"
     fit-margin-bottom="0"
     inkscape:zoom="0.66368547"
     inkscape:cx="596.66818"
     inkscape:cy="296.07398"
     inkscape:window-width="3840"
     inkscape:window-height="2089"
     inkscape:window-x="1912"
     inkscape:window-y="-8"
     inkscape:window-maximized="1"
     inkscape:current-layer="layer1" />
  <defs
     id="defs108940" />
  <g
     inkscape:label="Calque 1"
     inkscape:groupmode="layer"
     id="layer1"
     transform="translate(67.77317,-70.071807)">
    <path
       d="m -54.2161,76.542277 -1.47897,-1.72546 0.18493,-2.28007 -2.21845,-0.493 -1.17085,-1.97194 -2.0952,0.92434 -2.09521,-0.92434 -1.17083,1.97194 -2.21845,0.493 0.18493,2.28007 -1.47897,1.72546 1.47897,1.72547 -0.18493,2.28005 2.21845,0.493 1.17083,1.97196 2.09521,-0.92436 2.0952,0.92436 1.17085,-1.97196 2.21845,-0.493 -0.18493,-2.28005 1.47897,-1.72547 m -2.6498,3.01956 -1.66385,0.36974 -0.86274,1.47896 -1.60219,-0.67785 -1.60222,0.67785 -0.86274,-1.47896 -1.66383,-0.36974 0.12321,-1.72546 -1.10922,-1.2941 1.10922,-1.29409 -0.12321,-1.72547 1.66383,-0.36975 0.86274,-1.47896 1.60222,0.67788 1.60219,-0.67788 0.86274,1.47896 1.66385,0.36975 -0.12321,1.72547 1.10923,1.29409 -1.10923,1.2941 0.12321,1.72546 m -1.29411,-5.73099 0.86274,0.86272 -4.92989,4.92989 -2.46494,-2.46493 0.86272,-0.86274 1.60222,1.60222 z"
       id="path35857"
       style="fill:#9ccc65;stroke-width:0.616235" />
  </g>
</svg>
