<?xml version="1.0" encoding="UTF-8" standalone="no"?>
<!-- Created with Inkscape (http://www.inkscape.org/) -->

<svg
   width="4.6301699mm"
   height="4.6301699mm"
   viewBox="0 0 4.6301699 4.6301699"
   version="1.1"
   id="svg109034"
   inkscape:version="1.1.1 (3bf5ae0d25, 2021-09-20)"
   sodipodi:docname="search.svg"
   xmlns:inkscape="http://www.inkscape.org/namespaces/inkscape"
   xmlns:sodipodi="http://sodipodi.sourceforge.net/DTD/sodipodi-0.dtd"
   xmlns="http://www.w3.org/2000/svg"
   xmlns:svg="http://www.w3.org/2000/svg">
  <sodipodi:namedview
     id="namedview109036"
     pagecolor="#ffffff"
     bordercolor="#666666"
     borderopacity="1.0"
     inkscape:pageshadow="2"
     inkscape:pageopacity="0.0"
     inkscape:pagecheckerboard="0"
     inkscape:document-units="mm"
     showgrid="false"
     fit-margin-top="0"
     fit-margin-left="0"
     fit-margin-right="0"
     fit-margin-bottom="0"
     inkscape:zoom="0.66368547"
     inkscape:cx="1172.242"
     inkscape:cy="510.03076"
     inkscape:window-width="3840"
     inkscape:window-height="2089"
     inkscape:window-x="1912"
     inkscape:window-y="-8"
     inkscape:window-maximized="1"
     inkscape:current-layer="layer1" />
  <defs
     id="defs109031" />
  <g
     inkscape:label="Calque 1"
     inkscape:groupmode="layer"
     id="layer1"
     transform="translate(219.9822,-13.631224)">
    <path
       d="m -218.26241,13.631224 a 1.7197917,1.7197917 0 0 1 1.71979,1.7198 c 0,0.42597 -0.1561,0.81756 -0.41275,1.11918 l 0.0714,0.0714 h 0.20902 l 1.32292,1.32292 -0.39688,0.39687 -1.32291,-1.32291 v -0.20902 l -0.0714,-0.0714 c -0.30163,0.25664 -0.69321,0.41275 -1.11919,0.41275 a 1.7197917,1.7197917 0 0 1 -1.71979,-1.71979 1.7197917,1.7197917 0 0 1 1.71979,-1.7198 m 0,0.52917 c -0.66146,0 -1.19062,0.52917 -1.19062,1.19063 0,0.66145 0.52916,1.19062 1.19062,1.19062 0.66146,0 1.19063,-0.52917 1.19063,-1.19062 0,-0.66146 -0.52917,-1.19063 -1.19063,-1.19063 z"
       id="path9919"
       style="fill:#45bbc6;fill-opacity:1;stroke-width:0.264583" />
  </g>
</svg>
